<svg id="Layer_1" data-name="Layer 1" xmlns="http://www.w3.org/2000/svg" xmlns:xlink="http://www.w3.org/1999/xlink" viewBox="0 0 706.53 422.81"><defs><style>.cls-1{fill:url(#linear-gradient);}.cls-2{fill:url(#linear-gradient-2);}</style><linearGradient id="linear-gradient" x1="13.36" y1="98.99" x2="688.91" y2="130.8" gradientUnits="userSpaceOnUse"><stop offset="0" stop-color="#a5d17d"/><stop offset="0.16" stop-color="#93c879"/><stop offset="0.49" stop-color="#63b26d"/><stop offset="0.95" stop-color="#178f5b"/><stop offset="1" stop-color="#0e8b59"/></linearGradient><linearGradient id="linear-gradient-2" x1="-5" y1="106.71" x2="706.48" y2="140.21" xlink:href="#linear-gradient"/></defs><title>banner</title><path class="cls-1" d="M18,.61V136.39a97.57,97.57,0,0,0,97.46,97.46H591.08a97.57,97.57,0,0,0,97.46-97.46V.61ZM397.48,156.89q0,9.27-15.1,13.12c-.06.11-2.69,1-7.91,2.65-.8,3.33-2.24,5-4.34,5,0,.31-.88.46-2.65.46H366c-1.49,0-2.36-1.09-2.6-3.27V174q0-7.32,9.84-11.83,0-.33,8.32-4.59v-.21c0-.44-.95-.73-2.86-.87s-4.47.8-7.86,2.4h-.66q-2.61,0-4.84-7.45V149.7q0-5.22,10.71-13.82l.25-.87a1.82,1.82,0,0,0-.66-.21c-.85,0-3.56,1.09-8.11,3.27h-.41q-4.38,0-6.58-11.79V125q0-5.17,3.27-6.13h.45a12.62,12.62,0,0,1,3.48,1.74,1.56,1.56,0,0,0,.66.25,8.47,8.47,0,0,1,3.52-.66h2q15,0,17.26,3.27a10.93,10.93,0,0,1,2.64,6.57v1.54q0,5.16-9,12.9v.21h.45a7.12,7.12,0,0,1,3.68-1.53h.66q3.06,0,7.24,8.31a17.12,17.12,0,0,1,.67,4.6Zm18.73-69.42A21.11,21.11,0,0,1,408,104.85l-2.24.48c-.37,0-.8-.43-1.28-1.28a5.12,5.12,0,0,0,.88-2.64v-1.28a4.93,4.93,0,0,0-4.8-2.65h-3q-9.12,0-51.81,18.74-8.88,0-20.5,50.53l1.28,8.73q-1.68,8.25-16.09,8.25h-2.16q-11.29,0-14.34-7.85v-3q0-1.36,5.61-13.54a212,212,0,0,1,12.25-40h-.48q-11.94-3.45-17.86-12.66a26.52,26.52,0,0,1-3-11.29V93.56q0-12.25,14.81-20H306q6.09,11.77,17.86,11.77a21.79,21.79,0,0,0,5.21.4h1.76q14.17,0,50.53-15.21a38.25,38.25,0,0,1,10.89-1.76h2.56q15.14,0,21,12.65l.4,4.32Zm-48,89.16.33.16h.16q3.15-.71,3.15-2.64Q368.18,175.05,368.19,176.63Z"/><path class="cls-2" d="M696.53.62V136.39A105.58,105.58,0,0,1,591.07,241.85H115.46A105.58,105.58,0,0,1,10,136.39V.62H0V136.39A115.46,115.46,0,0,0,115.46,251.85H591.07A115.46,115.46,0,0,0,706.53,136.39V.62Z"/></svg>