<svg id="Layer_1" data-name="Layer 1" xmlns="http://www.w3.org/2000/svg" xmlns:xlink="http://www.w3.org/1999/xlink" viewBox="0 0 706.53 422.81"><defs><style>.cls-1{fill:url(#linear-gradient);}.cls-2{fill:url(#linear-gradient-2);}.cls-3{fill:url(#linear-gradient-3);}.cls-4{fill:url(#linear-gradient-4);}.cls-5{fill:url(#linear-gradient-5);}.cls-6{fill:url(#linear-gradient-6);}.cls-7{fill:url(#linear-gradient-7);}.cls-8{fill:url(#linear-gradient-8);}.cls-9{fill:url(#linear-gradient-9);}.cls-10{fill:url(#linear-gradient-10);}</style><linearGradient id="linear-gradient" x1="73.52" y1="116.62" x2="756.75" y2="148.79" gradientUnits="userSpaceOnUse"><stop offset="0" stop-color="#a5d17d"/><stop offset="0.16" stop-color="#93c879"/><stop offset="0.49" stop-color="#63b26d"/><stop offset="0.95" stop-color="#178f5b"/><stop offset="1" stop-color="#0e8b59"/></linearGradient><linearGradient id="linear-gradient-2" x1="74.23" y1="101.6" x2="757.46" y2="133.77" xlink:href="#linear-gradient"/><linearGradient id="linear-gradient-3" x1="73.51" y1="116.87" x2="756.74" y2="149.04" xlink:href="#linear-gradient"/><linearGradient id="linear-gradient-4" x1="73.08" y1="125.98" x2="756.31" y2="158.15" xlink:href="#linear-gradient"/><linearGradient id="linear-gradient-5" x1="74.76" y1="90.33" x2="757.99" y2="122.5" xlink:href="#linear-gradient"/><linearGradient id="linear-gradient-6" x1="74.22" y1="101.76" x2="757.45" y2="133.93" xlink:href="#linear-gradient"/><linearGradient id="linear-gradient-7" x1="64.28" y1="301.29" x2="747.51" y2="333.46" xlink:href="#linear-gradient"/><linearGradient id="linear-gradient-8" x1="64.12" y1="304.75" x2="747.35" y2="336.92" xlink:href="#linear-gradient"/><linearGradient id="linear-gradient-9" x1="65.03" y1="285.41" x2="748.26" y2="317.58" xlink:href="#linear-gradient"/><linearGradient id="linear-gradient-10" x1="64.48" y1="296.94" x2="747.72" y2="329.12" xlink:href="#linear-gradient"/></defs><title>title</title><path class="cls-1" d="M69.9,139.73c.92.76,2.11,1.79,3.56,3.07a46.32,46.32,0,0,0,5,3.81A41.65,41.65,0,0,0,86.71,151a24,24,0,0,0,8.61,1.56,22.73,22.73,0,0,0,7-.94,12.06,12.06,0,0,0,4.47-2.5,8.82,8.82,0,0,0,2.33-3.61,13.21,13.21,0,0,0,.7-4.34,6.39,6.39,0,0,0-1.93-4.55,19.81,19.81,0,0,0-4.71-3.56,39.24,39.24,0,0,0-5.82-2.66q-3-1.11-5.25-1.85A119.5,119.5,0,0,1,74.9,121.1a53.12,53.12,0,0,1-12.3-8.85,31.83,31.83,0,0,1-9.84-23.8A30.85,30.85,0,0,1,55.83,74.6,30.44,30.44,0,0,1,64.61,64a41.68,41.68,0,0,1,13.73-6.84,62.28,62.28,0,0,1,18-2.42,59.91,59.91,0,0,1,14.31,1.68,54.57,54.57,0,0,1,13.49,5.37c1.86,1.1,3.62,2.23,5.29,3.41a54.35,54.35,0,0,1,4.38,3.4,20.38,20.38,0,0,1,3,3.12,4.55,4.55,0,0,1,1.1,2.54,3.72,3.72,0,0,1-.53,2,12.63,12.63,0,0,1-1.6,2.06L123.2,91.59a4,4,0,0,1-2.79,1.4,3.53,3.53,0,0,1-2.09-.66c-.63-.44-1.33-1-2.09-1.64l-.74-.66c-1.1-.93-2.31-1.88-3.65-2.87a32.75,32.75,0,0,0-4.31-2.66,29.27,29.27,0,0,0-4.83-2,17.57,17.57,0,0,0-5.17-.78,27.28,27.28,0,0,0-5.08.45,14.17,14.17,0,0,0-4.19,1.44,7.88,7.88,0,0,0-2.87,2.58,7.56,7.56,0,0,0,.09,7.87,11.36,11.36,0,0,0,3.44,3.12,31.1,31.1,0,0,0,5.7,2.7c2.27.85,4.9,1.77,7.91,2.75q8.7,2.88,16,6a53.81,53.81,0,0,1,12.67,7.46,30.8,30.8,0,0,1,8.32,10.29,32.13,32.13,0,0,1,3,14.52,35.86,35.86,0,0,1-3.69,16.35,37.33,37.33,0,0,1-10.13,12.51,47.17,47.17,0,0,1-15.13,8,59.93,59.93,0,0,1-18.69,2.83,53,53,0,0,1-18.54-3.37,71.15,71.15,0,0,1-17-9,44.55,44.55,0,0,1-5.54-4.69q-2.25-2.31-3.56-3.7l-.25-.25a.47.47,0,0,0-.16-.21.44.44,0,0,1-.17-.12.38.38,0,0,0-.16-.2.48.48,0,0,1-.16-.13c-1.26-1.37-1.89-2.47-1.89-3.29s.63-2,1.89-3.12L63.58,139a5.35,5.35,0,0,1,2.79-1.23,3,3,0,0,1,1.56.49A15.91,15.91,0,0,1,69.9,139.73Z"/><path class="cls-2" d="M158.7,39.85c0-2.3.49-3.92,1.48-4.88a6.35,6.35,0,0,1,4.59-1.43h19A7.11,7.11,0,0,1,188.43,35c1.17,1,1.76,2.58,1.76,4.88v16a5.82,5.82,0,0,1-.45,2.13,9.2,9.2,0,0,1-1.27,2.22,7.09,7.09,0,0,1-2,1.76,5.24,5.24,0,0,1-2.67.7h-19q-6.08,0-6.07-6.81Zm0,41.49a7.07,7.07,0,0,1,1.48-4.51,5.45,5.45,0,0,1,4.59-1.89h18.78a5.94,5.94,0,0,1,2.13.46,7.22,7.22,0,0,1,2.13,1.31,8.17,8.17,0,0,1,1.68,2,5,5,0,0,1,.7,2.62v91.43a6.17,6.17,0,0,1-1.72,4.72,7,7,0,0,1-4.92,1.6H164.77q-6.08,0-6.07-6.32Z"/><path class="cls-3" d="M212,76.41a5.15,5.15,0,0,1,2.25-1.15,11.52,11.52,0,0,1,2.26-.24h12.38a5.31,5.31,0,0,1,4.35,2,7.75,7.75,0,0,1,1.19,2c.3.76.58,1.55.86,2.37L237,88.6a25.17,25.17,0,0,1,3.52-5.24,24.88,24.88,0,0,1,5.83-4.9,33.53,33.53,0,0,1,8.4-3.64,40.63,40.63,0,0,1,11.44-1.43,40,40,0,0,1,9.39,1,29.1,29.1,0,0,1,7.71,3,29.69,29.69,0,0,1,6.35,4.9A45.79,45.79,0,0,1,295.06,89a25.52,25.52,0,0,1,4.64-5.32A37,37,0,0,1,307,78.62a46.32,46.32,0,0,1,9.51-3.76,41.2,41.2,0,0,1,11.15-1.47A35.12,35.12,0,0,1,344,77a33.25,33.25,0,0,1,11.6,9.81,43.25,43.25,0,0,1,6.93,14.52,66.42,66.42,0,0,1,2.3,17.74v53.71a7.11,7.11,0,0,1-1.36,4.72,5.34,5.34,0,0,1-4.3,1.6H340.25c-2.35,0-4-.4-4.84-1.19s-1.31-2.34-1.31-4.64v-54.2A18.94,18.94,0,0,0,333,112.5a16.62,16.62,0,0,0-3.08-5.29,13.71,13.71,0,0,0-4.79-3.52,15.11,15.11,0,0,0-6.27-1.27,14.49,14.49,0,0,0-5.91,1.23,15.5,15.5,0,0,0-4.92,3.4,16.19,16.19,0,0,0-3.4,5.25,17.47,17.47,0,0,0-1.27,6.76v53.71a7.11,7.11,0,0,1-1.36,4.72,5.34,5.34,0,0,1-4.3,1.6H278.75c-2.35,0-4-.4-4.84-1.19s-1.31-2.34-1.31-4.64v-54.2a20.45,20.45,0,0,0-1-6.56,16,16,0,0,0-2.95-5.29,13.54,13.54,0,0,0-4.67-3.52,14.59,14.59,0,0,0-6.2-1.27A14.87,14.87,0,0,0,252,103.6a16.62,16.62,0,0,0-5.08,3.37,18.93,18.93,0,0,0-3.77,5.2,17.68,17.68,0,0,0-1.77,6.73V173a7.67,7.67,0,0,1-.53,2.79,4.43,4.43,0,0,1-1.6,2.13,7.58,7.58,0,0,1-2,.9,8.81,8.81,0,0,1-2.17.25H216.51c-2.35,0-4-.58-5.08-1.73a6.57,6.57,0,0,1-1.56-4.59V81.07a6,6,0,0,1,.69-2.86,5.2,5.2,0,0,1,1.93-2Z"/><path class="cls-4" d="M386.74,75.93A5.07,5.07,0,0,1,389,74.78a10.91,10.91,0,0,1,2.22-.24h12.38a5.91,5.91,0,0,1,2.58.49,4.49,4.49,0,0,1,1.68,1.35,8.33,8.33,0,0,1,1.11,2c.3.74.59,1.54.86,2.42l3.45,9.92q2.29-3,4.63-6a30.35,30.35,0,0,1,5.53-5.57A28.45,28.45,0,0,1,431,74.94a31.4,31.4,0,0,1,10.82-1.63,51.14,51.14,0,0,1,20.71,4.14,49.52,49.52,0,0,1,16.32,11.39,52.79,52.79,0,0,1,10.7,17.06,60.16,60.16,0,0,1,0,42.35,52.66,52.66,0,0,1-10.7,17.1,50,50,0,0,1-16.32,11.44A50.66,50.66,0,0,1,441.84,181a29.37,29.37,0,0,1-9.18-1.27,27.07,27.07,0,0,1-6.85-3.32,32,32,0,0,1-5.29-4.51q-2.29-2.46-4.51-4.92v38.21a6.22,6.22,0,0,1-1.47,4.18,5.74,5.74,0,0,1-4.59,1.73H391.17a6.18,6.18,0,0,1-2.13-.42,8,8,0,0,1-2.14-1.14,6.37,6.37,0,0,1-1.64-1.85,4.88,4.88,0,0,1-.65-2.5V80.6a5.34,5.34,0,0,1,.61-2.7A9.52,9.52,0,0,1,386.74,75.93Zm76.59,51.17a29.06,29.06,0,0,0-1.72-10,25.54,25.54,0,0,0-4.84-8.24,22.85,22.85,0,0,0-7.46-5.57,22.19,22.19,0,0,0-9.6-2,25.37,25.37,0,0,0-9.8,1.92,26.35,26.35,0,0,0-8.11,5.25,26.63,26.63,0,0,0-5.66,7.83,24.57,24.57,0,0,0-2.42,9.6v1.23a25.35,25.35,0,0,0,2,10.17,25.79,25.79,0,0,0,5.57,8.24,26.64,26.64,0,0,0,8.29,5.53,25.13,25.13,0,0,0,10.08,2.05,22.19,22.19,0,0,0,9.6-2.05,23.16,23.16,0,0,0,7.46-5.53,25,25,0,0,0,4.84-8.24A29.83,29.83,0,0,0,463.33,127.1Z"/><path class="cls-5" d="M509.82,50.26a7.32,7.32,0,0,1,1.31-4.42Q512.45,44,515.64,44h20.09a3.84,3.84,0,0,1,1.72.45,6.1,6.1,0,0,1,1.69,1.27,7.77,7.77,0,0,1,1.31,2,6,6,0,0,1,.53,2.54V172.77a6.07,6.07,0,0,1-1.76,4.72,6.56,6.56,0,0,1-4.55,1.6h-19c-2.13,0-3.63-.54-4.51-1.6a7.34,7.34,0,0,1-1.31-4.72Z"/><path class="cls-6" d="M647.91,166.62A54.36,54.36,0,0,1,631.67,177a49.42,49.42,0,0,1-19.1,3.74,55.76,55.76,0,0,1-38.79-15.46,54.48,54.48,0,0,1-12-17.1,51.56,51.56,0,0,1-4.43-21.4,55.28,55.28,0,0,1,6.77-26.65A53.3,53.3,0,0,1,572,89.25a49.91,49.91,0,0,1,10.37-8.48,51.55,51.55,0,0,1,12.46-5.5,50.41,50.41,0,0,1,14.19-2,48.45,48.45,0,0,1,13.2,1.8,51.31,51.31,0,0,1,12,5.08,52,52,0,0,1,10.3,7.88,53.4,53.4,0,0,1,8,10,48.7,48.7,0,0,1,5.21,11.64,44.45,44.45,0,0,1,1.84,12.76q0,4.26-.12,7a7.91,7.91,0,0,1-1.27,4.3,6.18,6.18,0,0,1-3.81,2.21,37.29,37.29,0,0,1-7.83.62h-59a20.24,20.24,0,0,0,3.32,8.77,20.67,20.67,0,0,0,5.78,5.62,23.08,23.08,0,0,0,7,3,29,29,0,0,0,7,.91,31.35,31.35,0,0,0,6.07-.62,44.09,44.09,0,0,0,6-1.64,33.9,33.9,0,0,0,5.33-2.38,17.71,17.71,0,0,0,3.9-2.83,17.21,17.21,0,0,1,2.25-1.6,4.08,4.08,0,0,1,2-.53,4,4,0,0,1,2.18.74,17.39,17.39,0,0,1,2.5,2.13l8.69,9.84a5.55,5.55,0,0,1,1.15,1.93,6.5,6.5,0,0,1,.24,1.76,4.54,4.54,0,0,1-.9,2.83A10.3,10.3,0,0,1,647.91,166.62Zm-39.44-68.3a15.59,15.59,0,0,0-6.19,1.27,23.1,23.1,0,0,0-5.62,3.4,30.33,30.33,0,0,0-8.12,10.33h41.9a48.25,48.25,0,0,0-3.73-5.9,25.28,25.28,0,0,0-4.59-4.76,20,20,0,0,0-5.91-3.2A23.81,23.81,0,0,0,608.47,98.32Z"/><path class="cls-7" d="M263,257a5.17,5.17,0,0,1,2.05,2.13,3.39,3.39,0,0,1-.24,3.12L251,281.9a3.25,3.25,0,0,1-1.93,1.6,3.67,3.67,0,0,1-2.5-.7,31.19,31.19,0,0,0-8.86-4.67,31.5,31.5,0,0,0-10.25-1.64A29.69,29.69,0,0,0,205.27,286a32.19,32.19,0,0,0-6.39,10.33,35.72,35.72,0,0,0,0,25.22,31.93,31.93,0,0,0,6.39,10.25,30.14,30.14,0,0,0,9.76,6.92,29.81,29.81,0,0,0,12.38,2.55,31.84,31.84,0,0,0,19.28-6.4,3.77,3.77,0,0,1,2.46-.74,3.37,3.37,0,0,1,2,1.48l14,20.17a3.21,3.21,0,0,1,.24,3,5.33,5.33,0,0,1-2.05,2.06,65.37,65.37,0,0,1-16.6,8A61.4,61.4,0,0,1,228,371.69a62.14,62.14,0,0,1-31.65-8.53,63.53,63.53,0,0,1-22.47-22.43,60.59,60.59,0,0,1-6.31-14.92,62.95,62.95,0,0,1,6.31-48.38,63.63,63.63,0,0,1,9.8-12.75,61.09,61.09,0,0,1,12.67-9.8,63.79,63.79,0,0,1,15-6.31A60.92,60.92,0,0,1,228,246.31a61.56,61.56,0,0,1,18.57,2.75A63.88,63.88,0,0,1,263,257Z"/><path class="cls-8" d="M389.45,363.82a7.47,7.47,0,0,1-.49,2.66,4.07,4.07,0,0,1-1.65,2,4.14,4.14,0,0,1-2.13,1.15,11.35,11.35,0,0,1-2.13.24H366.9a7.26,7.26,0,0,1-2.79-.45,4.21,4.21,0,0,1-1.72-1.27,7.11,7.11,0,0,1-1.11-2c-.3-.79-.61-1.65-.94-2.58l-1.07-3.69a47.17,47.17,0,0,1-5,4.35,39.07,39.07,0,0,1-13.53,6.52,31.78,31.78,0,0,1-8.08,1,53.6,53.6,0,0,1-14.31-1.89,52.63,52.63,0,0,1-23.57-13.73A53.3,53.3,0,0,1,281,332.37a54.73,54.73,0,0,1-1.88-14.47,53.4,53.4,0,0,1,4.18-21.2,54.08,54.08,0,0,1,11.4-17.06,53.17,53.17,0,0,1,37.88-15.54,37.52,37.52,0,0,1,9.47,1.15,36.53,36.53,0,0,1,8,3.12,31.87,31.87,0,0,1,6.6,4.71A37.08,37.08,0,0,1,361.9,279l2.37-7.46c.55-1.37,1-2.48,1.36-3.32a5.8,5.8,0,0,1,1.14-1.89,3.09,3.09,0,0,1,1.52-.82,12,12,0,0,1,2.54-.2h12.22a11.35,11.35,0,0,1,2.13.24,4.06,4.06,0,0,1,2.13,1.15,5.21,5.21,0,0,1,1.65,2,6.76,6.76,0,0,1,.49,2.62ZM308.68,317.9A29.89,29.89,0,0,0,310.36,328a24,24,0,0,0,4.79,8.16,22.75,22.75,0,0,0,7.51,5.46,23,23,0,0,0,9.72,2,25.87,25.87,0,0,0,18.4-7.46,24.48,24.48,0,0,0,5.46-8.16,26.7,26.7,0,0,0,0-20.13,26.3,26.3,0,0,0-5.46-8.36,25.6,25.6,0,0,0-8.2-5.7,24.92,24.92,0,0,0-10.2-2.09,22.33,22.33,0,0,0-9.72,2.09,22.59,22.59,0,0,0-7.51,5.7,25.86,25.86,0,0,0-4.79,8.36A29.84,29.84,0,0,0,308.68,317.9Z"/><path class="cls-9" d="M409.13,241.06a7.31,7.31,0,0,1,1.31-4.43c.87-1.2,2.38-1.8,4.51-1.8H435a3.87,3.87,0,0,1,1.72.45,6.21,6.21,0,0,1,1.68,1.27,7.28,7.28,0,0,1,1.31,2,5.9,5.9,0,0,1,.54,2.54V363.57a6,6,0,0,1-1.77,4.72,6.52,6.52,0,0,1-4.55,1.59H415c-2.13,0-3.64-.53-4.51-1.59a7.28,7.28,0,0,1-1.31-4.72Z"/><path class="cls-10" d="M526.63,337.82a5.75,5.75,0,0,1,2.18-1,8.43,8.43,0,0,1,1.6-.21,5.68,5.68,0,0,1,2.54.58,6.91,6.91,0,0,1,2.38,2.46l9.18,13.85a14.5,14.5,0,0,1,.78,1.48,3.56,3.56,0,0,1,.37,1.31,4.18,4.18,0,0,1-1.19,3.08,16.13,16.13,0,0,1-2.59,2.09,61.6,61.6,0,0,1-14.71,7.5,50.32,50.32,0,0,1-16.94,2.83A53.15,53.15,0,0,1,496,369.88a51.76,51.76,0,0,1-12.76-5.37,55.2,55.2,0,0,1-10.82-8.36,50.89,50.89,0,0,1-8.36-10.86,55.34,55.34,0,0,1-5.37-12.92,55.4,55.4,0,0,1,0-29,54.39,54.39,0,0,1,5.37-12.91,51.73,51.73,0,0,1,8.36-10.83,54.25,54.25,0,0,1,10.82-8.32,53.61,53.61,0,0,1,27-7.22,55.21,55.21,0,0,1,16.53,2.38,51.59,51.59,0,0,1,14.22,7l-.24-.24a9.54,9.54,0,0,1,2.87,2.5,5.84,5.84,0,0,1,1.06,3.57,5.73,5.73,0,0,1-1,3l-7.3,12.38q-2.29,4-5.57,4a5.59,5.59,0,0,1-1.81-.37,10.18,10.18,0,0,1-2.38-1.27,37.48,37.48,0,0,0-7.75-3.89,25.22,25.22,0,0,0-8.81-1.52,21.69,21.69,0,0,0-9.51,2.09,22.24,22.24,0,0,0-7.42,5.7,26.83,26.83,0,0,0-4.8,8.36,30.31,30.31,0,0,0,0,20.13,24.87,24.87,0,0,0,4.8,8.16,22.33,22.33,0,0,0,16.93,7.46,23.45,23.45,0,0,0,8.77-1.63A39.58,39.58,0,0,0,526.63,337.82Z"/></svg>